<?xml version="1.0" encoding="utf-8"?>
<!-- Generator: Adobe Illustrator 25.4.1, SVG Export Plug-In . SVG Version: 6.00 Build 0)  -->
<svg version="1.1" id="Layer_2_00000173844298423799617890000016184164761068310442_"
	 xmlns="http://www.w3.org/2000/svg" xmlns:xlink="http://www.w3.org/1999/xlink" x="0px" y="0px" viewBox="0 0 16 16"
	 style="enable-background:new 0 0 16 16;" xml:space="preserve">
<path d="M11.9,6.2l1.3-2.3c0.1-0.1,0-0.3-0.1-0.4c-0.1-0.1-0.3,0-0.4,0.1L11.4,6c-1-0.5-2.2-0.7-3.4-0.7C6.7,5.2,5.6,5.5,4.6,6
	L3.2,3.6C3.1,3.5,3,3.5,2.8,3.5C2.7,3.6,2.7,3.8,2.8,3.9l1.3,2.3C1.8,7.5,0.2,9.8,0,12.5h16C15.7,9.8,14.2,7.5,11.9,6.2L11.9,6.2z
	 M4.3,10.2c-0.4,0-0.7-0.3-0.7-0.7c0-0.4,0.3-0.7,0.7-0.7C4.7,8.9,5,9.2,5,9.6C5,9.9,4.7,10.2,4.3,10.2z M11.7,10.2
	c-0.4,0-0.7-0.3-0.7-0.7c0-0.4,0.3-0.7,0.7-0.7c0.4,0,0.7,0.3,0.7,0.7C12.3,9.9,12,10.2,11.7,10.2z"/>
</svg>
