<svg xmlns="http://www.w3.org/2000/svg" viewBox="0 0 496 278.13">
  <path d="M377,200.74l41.15-71.28a8.35,8.35,0,0,0-3-11.39,8.26,8.26,0,0,0-11.34,3l-41.68,72.2c-31.8-14.53-67.6-22.63-106.1-22.63s-74.3,8.1-106.1,22.63l-41.69-72.2a8.33,8.33,0,1,0-14.41,8.37l41.14,71.28C64,239.18,15.94,311,8,395.07H504C496.06,311,448,239.18,377,200.74ZM142.12,325.41a20.79,20.79,0,1,1,20.79-20.79A20.79,20.79,0,0,1,142.12,325.41Zm227.7,0a20.79,20.79,0,1,1,20.79-20.79A20.8,20.8,0,0,1,369.82,325.41Z" transform="translate(-8 -116.93)"/>
</svg>
