<svg xmlns="http://www.w3.org/2000/svg" width="496" height="496" viewBox="0 0 496 496"><path d="M256,8a246.23,246.23,0,0,0-98.35,20.56,18.56,18.56,0,0,0-10.42,5.67c-54.75,27-98.29,72.94-121.14,129.93a18.63,18.63,0,0,0-3.75,12.09C13.71,201.42,8,227.94,8,256a246.08,246.08,0,0,0,21.09,99.32,18.57,18.57,0,0,0,4.51,8.33C60.51,419,106.83,462.93,164.26,485.93a18.61,18.61,0,0,0,11.87,3.71C201.33,498.29,227.9,504,256,504a246.31,246.31,0,0,0,98.47-20.63,18.65,18.65,0,0,0,10.13-5.5c54.83-27,98.43-73,121.31-130a18.63,18.63,0,0,0,3.75-12.09C498.29,310.58,504,284.06,504,256a246.16,246.16,0,0,0-20.71-98.62,18.6,18.6,0,0,0-5.3-9.78l0,0C451,92.65,405,49,347.84,26.09a18.63,18.63,0,0,0-12.09-3.75C310.58,13.71,284.06,8,256,8Zm0,37.2c21.74,0,42.29,4.21,62,10.29V177.73l-13.61-13.62a18.65,18.65,0,0,0-3.54-3.56L195.36,55.08C214.67,49.27,234.76,45.2,256,45.2ZM158,70.31l86.46,86.49H225.34a18.86,18.86,0,0,0-5.09,0H71A209.73,209.73,0,0,1,158,70.31ZM355.2,71a209.73,209.73,0,0,1,86.49,87L355.2,244.47V225.34a18.86,18.86,0,0,0,0-5.09ZM55.49,194H177.73l-13.06,13.05,0,0a18.5,18.5,0,0,0-4.34,4.31L55.08,316.64c-5.81-19.31-9.88-39.4-9.88-60.64C45.2,234.26,49.41,213.71,55.49,194Zm174.84,0h51.34L318,230.33v51.34L281.67,318H230.33L194,281.67V230.33Zm226.59,1.36c5.81,19.31,9.88,39.4,9.88,60.64,0,21.74-4.21,42.29-10.29,62H334.27l13.62-13.61a18.65,18.65,0,0,0,3.56-3.54ZM156.8,267.53v18.89a18.44,18.44,0,0,0,0,5.45V441a209.73,209.73,0,0,1-86.49-87ZM194,334.27,316.64,456.92c-19.31,5.81-39.4,9.88-60.64,9.88-21.74,0-42.29-4.21-62-10.29Zm73.53,20.93h19.13a18.86,18.86,0,0,0,5.09,0H441a209.73,209.73,0,0,1-87,86.49Z" transform="translate(-8 -8)" style="fill-rule:evenodd"/></svg>