<svg xmlns="http://www.w3.org/2000/svg" viewBox="0 0 496 496">
  <path d="M431.36,80.64A248,248,0,1,0,80.64,431.36,248,248,0,1,0,431.36,80.64ZM352,62.53a217.53,217.53,0,0,1,94.72,92.13L352,249.38ZM256,40a215.25,215.25,0,0,1,64,9.68v135.7l-20.15-20.14-.18-.19-.72-.72-.19-.18L186.2,51.58A214.79,214.79,0,0,1,256,40Zm64,190.62v50.76L281.38,320H230.62L192,281.38V230.62L230.62,192h50.76ZM154.66,65.28,249.38,160H62.53A217.53,217.53,0,0,1,154.66,65.28ZM160,449.47a217.53,217.53,0,0,1-94.72-92.13L160,262.62Zm5.24-237.32-.19.18-.72.72-.18.19L51.58,325.8A216.28,216.28,0,0,1,49.68,192h135.7ZM256,472a215.25,215.25,0,0,1-64-9.68V326.62l133.8,133.8A214.79,214.79,0,0,1,256,472Zm101.34-25.28L262.62,352H449.47A217.53,217.53,0,0,1,357.34,446.72ZM326.62,320l133.8-133.8a216.28,216.28,0,0,1,1.9,133.8Z" transform="translate(-8 -8)"/>
</svg>
