<svg xmlns="http://www.w3.org/2000/svg" width="496" height="464" viewBox="0 0 496 464"><path d="M212.26,24a56,56,0,0,0-48.19,27.26l-27.25,46H88.6C44.31,97.26,8,133,8,176.63v232C8,452.25,44.31,488,88.6,488H423.4c44.29,0,80.6-35.75,80.6-79.37v-232c0-43.61-36.31-79.37-80.6-79.37H375.18l-27.25-46A56,56,0,0,0,299.74,24Zm0,36.63h87.48a18.6,18.6,0,0,1,16.06,9.09l32.64,55.09a18.67,18.67,0,0,0,16.06,9.08h58.9c24.18,0,43.4,18.93,43.4,42.74v232c0,23.81-19.22,42.74-43.4,42.74H88.6c-24.18,0-43.4-18.93-43.4-42.74v-232c0-23.81,19.22-42.74,43.4-42.74h58.9a18.67,18.67,0,0,0,16.06-9.08L196.2,69.72A18.6,18.6,0,0,1,212.26,60.63ZM256,170.53c-61.41,0-111.6,49.41-111.6,109.89s50.19,109.9,111.6,109.9,111.6-49.42,111.6-109.9S317.41,170.53,256,170.53Zm0,36.63c41.31,0,74.4,32.58,74.4,73.26s-33.09,73.26-74.4,73.26-74.4-32.58-74.4-73.26S214.69,207.16,256,207.16Z" transform="translate(-8 -24)" style="fill-rule:evenodd"/></svg>