<svg id="Layer_1" data-name="Layer 1" xmlns="http://www.w3.org/2000/svg" width="512" height="107.79" viewBox="0 0 512 107.79">
  <defs>
    <style>
      .cls-1 {
        fill: #fff;
      }
    </style>
  </defs>
  <path class="cls-1" d="M0,13.47,13.47,0h53.9V13.47H20.21l-6.74,6.74V40.42h53.9V53.89H0Z" transform="translate(0 0)"/>
  <path class="cls-1" d="M101.05,53.89V30.32L74.11,0H92.58l15.21,16.84L122.79,0h18.68L114.53,30.32V53.89Z" transform="translate(0 0)"/>
  <path class="cls-1" d="M148.21,53.89V0h67.37V53.89ZM202.1,20.21V13.47H161.68v6.74Zm0,20.21V33.68H161.68v6.74Z" transform="translate(0 0)"/>
  <polygon class="cls-1" points="235.79 13.47 235.79 20.21 289.68 20.21 289.68 33.68 235.79 33.68 235.79 40.42 289.68 40.42 289.68 53.89 262.74 53.89 262.74 107.78 249.26 107.78 249.26 53.89 222.32 53.89 222.32 0 289.68 0 289.68 13.47 235.79 13.47"/>
  <path class="cls-1" d="M363.79,13.47,350.32,0h-53.9V107.78h13.47V87.57h40.43v20.21h13.47V53.89L343.58,33.68h20.21ZM346.68,53.89V74.1H309.89V33.68h16.48ZM309.89,20.21V13.47h33.69l6.74,6.74Z" transform="translate(0 0)"/>
  <path class="cls-1" d="M370.53,53.89H384V87.58l6.74,6.74h33.68V53.89h13.47v53.9H384L370.53,94.32Z" transform="translate(0 0)"/>
  <path class="cls-1" d="M444.63,67.37,458.1,53.89H512V67.37H464.84l-6.74,6.74V94.32h40.43V87.58H485.05V74.11H512v33.68H444.63Z" transform="translate(0 0)"/>
</svg>
