<svg xmlns="http://www.w3.org/2000/svg" width="496.05" height="400" viewBox="0 0 496.05 400"><path d="M65,0C29.29,0,0,29.18,0,64.71V335.29C0,370.82,29.29,400,65,400H431.1c35.66,0,64.95-29.18,64.95-64.71V64.71C496,29.18,466.71,0,431.05,0Zm0,35.29H431.1a29.21,29.21,0,0,1,29.52,28.9v271.1a29.21,29.21,0,0,1-29,29.42H65a29.21,29.21,0,0,1-29.52-28.9V64.71a29.21,29.21,0,0,1,29-29.42Zm62,94.12a14.74,14.74,0,0,0-14.76,14.71V255.88a14.76,14.76,0,0,0,29.52,0V144.12A14.74,14.74,0,0,0,127,129.41Zm79,0c-24,0-43.55,19.13-43.55,42.65S182,214.71,206,214.71h16.24c7.73,0,14,5.94,14,13.23s-6.27,13.24-14,13.24h-21c-7.76,0-13.52-3.91-14.85-5.4a14.75,14.75,0,0,0-24.45,16.49c6.09,9.11,21.54,18.32,39.3,18.32h21c24,0,43.54-19.13,43.54-42.65s-19.53-42.65-43.54-42.65H205.93c-7.74,0-14.05-5.94-14.05-13.23s6.31-13.24,14.05-13.24h15.5a14,14,0,0,1,11.09,4.85,14.74,14.74,0,0,0,25-15.58,43,43,0,0,0-36.12-18.68Zm133.59,0c-34.18,0-62,31.66-62,70.59s27.82,70.59,62,70.59,62-31.66,62-70.59-27.88-70.59-62.07-70.59Zm0,29.41c17.92,0,32.48,18.47,32.48,41.18s-14.56,41.18-32.48,41.18S307.05,222.71,307.05,200s14.56-41.18,32.47-41.18Z" style="fill-rule:evenodd"/></svg>