<svg xmlns="http://www.w3.org/2000/svg" viewBox="0 0 493.71 432">
  <path d="M194.29,178.86A46.29,46.29,0,1,1,148,132.57,46.29,46.29,0,0,1,194.29,178.86Z" transform="translate(-9.14 -40)"/>
  <path d="M70.86,40A61.71,61.71,0,0,0,9.14,101.71V410.29A61.71,61.71,0,0,0,70.86,472H441.14a61.71,61.71,0,0,0,61.72-61.71V101.71A61.71,61.71,0,0,0,441.14,40ZM441.14,70.86A30.86,30.86,0,0,1,472,101.71V302.29L355.45,242.21a15.41,15.41,0,0,0-17.8,2.87L223.17,359.56l-82.08-54.68a15.43,15.43,0,0,0-19.44,1.91L40,379.43V101.71A30.86,30.86,0,0,1,70.86,70.86Z" transform="translate(-9.14 -40)"/>
</svg>
