<svg xmlns="http://www.w3.org/2000/svg" width="496" height="496" viewBox="0 0 496 496"><path d="M75.55,0C32.85,0,0,32.85,0,75.55V338.33C0,358,6.57,377.75,23,390.89l78.84,78.83h0C115,486.15,134.68,496,157.67,496H420.45c42.7,0,75.55-32.85,75.55-75.55V157.67c0-23-9.85-42.7-26.28-55.84h0L390.89,23C377.75,9.85,358,0,338.33,0Zm0,42.7H338.33c9.86,0,16.42,3.29,23,9.86L394.17,85.4H115L72.26,42.7Zm49.27,82.12H423.74c9.85,0,16.42,3.29,23,9.86S459.87,151.1,459.87,161V423.74a36.46,36.46,0,0,1-36.13,36.13H161a36.46,36.46,0,0,1-36.13-36.13Z" style="fill-rule:evenodd"/></svg>