<svg xmlns="http://www.w3.org/2000/svg" width="496" height="400" viewBox="0 0 496 400"><path d="M163,456c186,0,288.3-153.53,288.3-285.57V158.14c21.7-15.35,40.3-33.77,52.7-55.27-18.6,9.21-37.2,12.28-58.9,15.36,21.7-12.29,37.2-33.78,43.4-55.28-18.6,12.29-43.4,21.5-65.1,24.57-37.2-39.92-102.3-43-142.6-3.07-27.9,24.56-37.2,61.41-31,95.19-80.6-3.07-155-39.92-207.7-104.4-27.9,46.06-12.4,104.4,31,135.11-15.5,0-31-6.15-46.5-12.29h0a99.35,99.35,0,0,0,80.6,98.26c-6.2,3.08-15.5,6.15-24.8,6.15-6.2,0-12.4,0-18.6-3.07C76.2,339.31,116.5,370,159.9,370c-37.2,27.64-80.6,43-127.1,43H8C54.5,440.65,107.2,456,163,456Z" transform="translate(-8 -56)" style="fill-rule:evenodd"/></svg>