<svg xmlns="http://www.w3.org/2000/svg" width="496" height="496" viewBox="0 0 496 496"><rect x="185.18" y="185.18" width="125.64" height="125.64" rx="2.04" transform="translate(-102.72 248) rotate(-45)"/><path d="M458.51,204.48a406,406,0,0,1,35.73,98.94.87.87,0,0,0,1.06.62.89.89,0,0,0,.65-.83,319.14,319.14,0,0,0-28-123.66q7.35-21.15,12.84-43.32a204.82,204.82,0,0,1,13.4,39.36.8.8,0,0,0,1.57-.22,189.18,189.18,0,0,0-11-56.43A532.45,532.45,0,0,0,496,17.16a.79.79,0,0,0-.72-.84.77.77,0,0,0-.83.67,708.93,708.93,0,0,1-19.93,78.87A178.34,178.34,0,0,0,400.4,21.64a707.17,707.17,0,0,1,78-19.72.77.77,0,0,0,.65-.87V1a.77.77,0,0,0-.81-.66A531.14,531.14,0,0,0,377.59,11.44,192.28,192.28,0,0,0,320.58,0a.8.8,0,0,0-.86.74h0a.8.8,0,0,0,.63.84A209.26,209.26,0,0,1,360.24,15.4q-22.31,5.49-43.63,12.87A317.67,317.67,0,0,0,193.54.42a.87.87,0,0,0-.2,1.72,405.27,405.27,0,0,1,98.38,35.54A476.61,476.61,0,0,0,248,58.22h0C180.65,22.27,102.62,1.7,17.76.37a.78.78,0,0,0-.16,1.55c74.45,14.45,141.75,39.22,201,73.41A458.94,458.94,0,0,0,75.8,217.76C41.69,158.48,17,91.12,2.55,16.62A.77.77,0,0,0,1.66,16a.77.77,0,0,0-.66.81C2.33,101.69,22.82,179.73,58.65,247.1A472.74,472.74,0,0,0,38,290.62a407.16,407.16,0,0,1-35.26-98,.86.86,0,0,0-1.7.2,318.71,318.71,0,0,0,27.53,122.6q-7.41,21-12.94,43.1A206.66,206.66,0,0,1,2.81,320.45a.8.8,0,0,0-1.57.22,189.19,189.19,0,0,0,10.44,54.82h0A532,532,0,0,0,0,479.22a.78.78,0,0,0,1.55.16,708.56,708.56,0,0,1,20.37-80.29A178.43,178.43,0,0,0,96.66,474.4,702.85,702.85,0,0,1,17.6,494.46a.78.78,0,0,0,.16,1.54,530.84,530.84,0,0,0,101.93-11.34A192.05,192.05,0,0,0,176.42,496a.8.8,0,0,0,.23-1.57,209.82,209.82,0,0,1-39.73-13.74q22.23-5.52,43.47-12.95a317.66,317.66,0,0,0,123.07,27.84.86.86,0,0,0,1-.75.87.87,0,0,0-.76-1h0a405.14,405.14,0,0,1-98.43-35.57,471.32,471.32,0,0,0,43.61-20.6c67.37,36,145.46,56.6,230.4,57.93a.78.78,0,0,0,.16-1.55c-74.55-14.46-141.92-39.28-201.2-73.53A459.14,459.14,0,0,0,420.83,277.62c34.31,59.43,59.15,127,73.62,201.76a.77.77,0,0,0,.87.65h0a.77.77,0,0,0,.66-.81c-1.33-85.19-22-163.49-58-231A472.87,472.87,0,0,0,458.51,204.48ZM382.94,27.4a253.76,253.76,0,0,1,85.8,85.94q-6.9,19.86-14.89,38.85A302.54,302.54,0,0,0,343.94,42.33Q363,34.32,382.94,27.4ZM114.09,468.62a253.69,253.69,0,0,1-86.38-86.88q6.91-19.82,15-38.76A302.34,302.34,0,0,0,153,453.65Q134,461.69,114.09,468.62Zm63.53-26.05A386.94,386.94,0,0,1,53.74,318.38q10.24-21.53,22-41.78a458.94,458.94,0,0,0,143.65,144Q199.16,432.32,177.62,442.57Zm225-194.38A543.74,543.74,0,0,1,248.78,402.34,543.57,543.57,0,0,1,94,247.24,543.7,543.7,0,0,1,248,93.52,544,544,0,0,1,402.64,248.18ZM277.42,75.33q20.29-11.73,41.87-21.95a386.66,386.66,0,0,1,123.5,123.51q-10.23,21.56-22,41.86A459.35,459.35,0,0,0,277.42,75.33Z" transform="translate(0 0)"/></svg>