<svg xmlns="http://www.w3.org/2000/svg" viewBox="0 0 512 512">
  <path d="M254.56,168.6l-86,86a2,2,0,0,0,0,2.88l86,86a2,2,0,0,0,2.88,0l86-86a2,2,0,0,0,0-2.88l-86-86A2,2,0,0,0,254.56,168.6Zm212,43.88a406,406,0,0,1,35.73,98.94.87.87,0,0,0,1.71-.21,318.87,318.87,0,0,0-28-123.66q7.35-21.15,12.84-43.32a205.16,205.16,0,0,1,13.4,39.36.8.8,0,0,0,1.57-.22,189.27,189.27,0,0,0-11-56.43A532.17,532.17,0,0,0,504,25.16a.78.78,0,0,0-1.55-.17,708.12,708.12,0,0,1-19.93,78.87A178.34,178.34,0,0,0,408.4,29.64a704.69,704.69,0,0,1,78-19.72.78.78,0,0,0-.16-1.55A530.76,530.76,0,0,0,385.59,19.44,192.2,192.2,0,0,0,328.58,8a.8.8,0,0,0-.23,1.58A209.23,209.23,0,0,1,368.24,23.4q-22.31,5.48-43.63,12.87A317.66,317.66,0,0,0,201.54,8.42a.87.87,0,0,0-.2,1.72,405.09,405.09,0,0,1,98.38,35.54A472.92,472.92,0,0,0,256,66.22h0C188.65,30.27,110.62,9.7,25.76,8.37a.78.78,0,0,0-.16,1.55c74.45,14.45,141.75,39.22,201,73.41A459,459,0,0,0,83.8,225.76C49.69,166.48,25,99.12,10.55,24.62A.78.78,0,0,0,9,24.78c1.33,84.88,21.82,162.92,57.65,230.29A473.31,473.31,0,0,0,46,298.62a406.88,406.88,0,0,1-35.26-98,.86.86,0,0,0-1.7.2,318.74,318.74,0,0,0,27.53,122.6q-7.41,21-12.94,43.1a206.47,206.47,0,0,1-12.82-38.07.8.8,0,0,0-1.57.22,189.18,189.18,0,0,0,10.44,54.82h0A532,532,0,0,0,8,487.22a.78.78,0,0,0,1.55.16,709.62,709.62,0,0,1,20.37-80.29,178.43,178.43,0,0,0,74.74,75.31A704.5,704.5,0,0,1,25.6,502.46a.78.78,0,0,0,.16,1.54,530.62,530.62,0,0,0,101.93-11.34A192,192,0,0,0,184.42,504a.8.8,0,0,0,.23-1.57,210,210,0,0,1-39.73-13.74q22.23-5.52,43.47-12.95a317.69,317.69,0,0,0,123.07,27.84.86.86,0,0,0,.2-1.71,405,405,0,0,1-98.43-35.57,471.52,471.52,0,0,0,43.61-20.6c67.37,36,145.46,56.6,230.4,57.93a.78.78,0,0,0,.16-1.55c-74.55-14.46-141.92-39.28-201.2-73.53A459.25,459.25,0,0,0,428.83,285.62c34.31,59.43,59.15,127,73.62,201.76a.78.78,0,0,0,1.55-.16c-1.33-85.19-22-163.49-58-231A473,473,0,0,0,466.51,212.48ZM390.94,35.4a253.75,253.75,0,0,1,85.8,85.94q-6.89,19.86-14.89,38.85A302.47,302.47,0,0,0,351.94,50.33Q371,42.32,390.94,35.4ZM122.09,476.62a253.59,253.59,0,0,1-86.38-86.88q6.91-19.82,15-38.76A302.37,302.37,0,0,0,161,461.65Q142,469.69,122.09,476.62Zm63.53-26.05A386.94,386.94,0,0,1,61.74,326.38q10.24-21.53,22-41.78a459,459,0,0,0,143.65,144Q207.15,440.32,185.62,450.57Zm225-194.38A543.56,543.56,0,0,1,256.78,410.34,543.52,543.52,0,0,1,102,255.24,543.54,543.54,0,0,1,256,101.52,543.93,543.93,0,0,1,410.64,256.18ZM285.42,83.33q20.29-11.73,41.87-21.95a386.66,386.66,0,0,1,123.5,123.51q-10.23,21.56-22,41.86A459.27,459.27,0,0,0,285.42,83.33Z"/>
</svg>
