<svg xmlns="http://www.w3.org/2000/svg" width="446.4" height="496" viewBox="0 0 446.4 496"><path d="M113.4,8A56.08,56.08,0,0,0,57.6,63.8v168A31.37,31.37,0,0,0,32.8,262.2V398.6A31.37,31.37,0,0,0,57.6,429V448.2A56.08,56.08,0,0,0,113.4,504H398.6a56.08,56.08,0,0,0,55.8-55.8V429a31.37,31.37,0,0,0,24.8-30.37V262.2a31.37,31.37,0,0,0-24.8-30.37v-44A18.6,18.6,0,0,0,449,174.65l-.19-.19-161-161A18.6,18.6,0,0,0,274.6,8Zm0,37.2H256V150.6a56.08,56.08,0,0,0,55.8,55.8H417.2v24.8H94.8V63.8A18.32,18.32,0,0,1,113.4,45.2ZM293.2,71.5l97.7,97.7H311.8a18.32,18.32,0,0,1-18.6-18.6ZM70,268.4H442v124H70Zm86.8,12.4a12.41,12.41,0,0,0-12.4,12.4v74.4a12.4,12.4,0,1,0,24.8,0V355.2h12.4a37.2,37.2,0,1,0,0-74.4Zm86.8,0a12.41,12.41,0,0,0-12.4,12.4v74.4A12.41,12.41,0,0,0,243.6,380H256a49.6,49.6,0,1,0,0-99.2Zm86.8,0A12.41,12.41,0,0,0,318,293.2v74.4a12.4,12.4,0,1,0,24.8,0V342.8h18.6a12.4,12.4,0,1,0,0-24.8H342.8V305.6h24.8a12.4,12.4,0,0,0,0-24.8ZM169.2,305.6h12.4a12.4,12.4,0,1,1,0,24.8H169.2Zm86.8,0a24.8,24.8,0,1,1,0,49.6ZM94.8,429.6H417.2v18.6a18.32,18.32,0,0,1-18.6,18.6H113.4a18.32,18.32,0,0,1-18.6-18.6Z" transform="translate(-32.8 -8)" style="fill-rule:evenodd"/></svg>