<svg xmlns="http://www.w3.org/2000/svg" width="496" height="352" viewBox="0 0 496 352"><path d="M257.6,80.14h2.76A1358.37,1358.37,0,0,1,449.78,90.63a62.6,62.6,0,0,1,43.87,44.44,287.53,287.53,0,0,1,6.82,43.87l.31,3.25.68,8.14.25,3.26c2,28.6,2.26,55.39,2.29,61.24v2.34c0,6.08-.31,34.68-2.54,64.47l-.25,3.29-.28,3.25a313.35,313.35,0,0,1-7.28,48.76,62.52,62.52,0,0,1-43.87,44.43,1392.67,1392.67,0,0,1-191.59,10.49h-4.41c-9.58,0-49.2-.19-90.74-1.63l-5.27-.19-2.7-.12-5.3-.22-5.3-.22a494,494,0,0,1-82.28-8.14,62.52,62.52,0,0,1-43.87-44.4A312.16,312.16,0,0,1,11,328.18l-.25-3.29-.25-3.25Q8.25,289.84,8,257.93v-3.85c.06-6.73.31-30,2-55.64l.22-3.23.09-1.63.25-3.25.68-8.14.31-3.25a286.3,286.3,0,0,1,6.82-43.87A62.52,62.52,0,0,1,62.22,90.63a504.83,504.83,0,0,1,82.28-8.14l5.27-.22,5.33-.19,2.67-.09,5.3-.22q44.27-1.44,88.54-1.59h6ZM206.41,180.6V331.37L335.29,256Z" transform="translate(-8 -80)" style="fill-rule:evenodd"/></svg>