<svg id="artboard_1_aperture" data-name="artboard 1 aperture" xmlns="http://www.w3.org/2000/svg" width="512" height="512" viewBox="0 0 512 512">
  <g style="opacity: 0.01">
    <path d="M512,0h0V512H0V0H512m0,0H0V512H512V0Z"/>
  </g>
  <path d="M256,32a224.067,224.067,0,0,1,87.181,430.41A224.066,224.066,0,0,1,168.819,49.59,222.563,222.563,0,0,1,256,32m0-32C114.615,0,0,114.615,0,256S114.615,512,256,512,512,397.385,512,256,397.385,0,256,0Z"/>
  <polygon points="289.724 174.582 222.276 174.582 174.582 222.276 174.582 289.724 222.276 337.418 289.724 337.418 337.418 289.724 337.418 222.276 289.724 174.582" style="fill: none;stroke: #000;stroke-miterlimit: 10;stroke-width: 32px"/>
  <line x1="222.276" y1="174.582" x2="33.869" y2="174.582" style="fill: none;stroke: #000;stroke-miterlimit: 10;stroke-width: 32px"/>
  <line x1="478.323" y1="337.418" x2="289.916" y2="337.418" style="fill: none;stroke: #000;stroke-miterlimit: 10;stroke-width: 32px"/>
  <line x1="289.752" y1="174.514" x2="156.529" y2="41.291" style="fill: none;stroke: #000;stroke-miterlimit: 10;stroke-width: 32px"/>
  <line x1="355.663" y1="470.709" x2="222.439" y2="337.486" style="fill: none;stroke: #000;stroke-miterlimit: 10;stroke-width: 32px"/>
  <line x1="337.514" y1="222.18" x2="337.514" y2="33.773" style="fill: none;stroke: #000;stroke-miterlimit: 10;stroke-width: 32px"/>
  <line x1="174.678" y1="478.227" x2="174.678" y2="289.82" style="fill: none;stroke: #000;stroke-miterlimit: 10;stroke-width: 32px"/>
  <line x1="337.582" y1="289.657" x2="470.805" y2="156.433" style="fill: none;stroke: #000;stroke-miterlimit: 10;stroke-width: 32px"/>
  <line x1="41.387" y1="355.567" x2="174.61" y2="222.343" style="fill: none;stroke: #000;stroke-miterlimit: 10;stroke-width: 32px"/>
</svg>
