<svg xmlns="http://www.w3.org/2000/svg" width="512" height="512" viewBox="0 0 512 512">
  <g id="artboard_2_clock" data-name="artboard 2 clock">
    <g style="opacity: 0.01">
      <path d="M512,0h0V512H0V0H512m0,0H0V512H512V0Z"/>
    </g>
    <path d="M256,32a224.067,224.067,0,0,1,87.181,430.41A224.066,224.066,0,0,1,168.819,49.59,222.563,222.563,0,0,1,256,32m0-32C114.615,0,0,114.615,0,256S114.615,512,256,512,512,397.385,512,256,397.385,0,256,0Z"/>
    <polyline points="256 96 256 256 336 336" style="fill: none;stroke: #000;stroke-linecap: round;stroke-linejoin: round;stroke-width: 32px"/>
  </g>
</svg>
