<svg xmlns="http://www.w3.org/2000/svg" viewBox="0 0 512 512"><g id="cyberthugCore_small"><polygon points="421.12 130.19 90.88 130.19 67.29 153.78 67.29 200.96 90.88 224.55 421.12 224.55 444.71 200.96 444.71 153.78 421.12 130.19" style="fill:none;stroke:#000;stroke-linecap:round;stroke-linejoin:round;stroke-width:16px"/><polygon points="106.61 130.19 106.61 90.88 130.19 67.29 381.81 67.29 405.39 90.88 405.39 130.19 106.61 130.19" style="fill:none;stroke:#000;stroke-linecap:round;stroke-linejoin:round;stroke-width:16px"/><polygon points="145.92 67.29 145.92 35.84 169.51 12.25 342.49 12.25 366.08 35.84 366.08 67.29 145.92 67.29" style="fill:none;stroke:#000;stroke-linecap:round;stroke-linejoin:round;stroke-width:16px"/><polygon points="106.61 224.55 106.61 263.86 130.19 287.45 381.81 287.45 405.39 263.86 405.39 224.55 106.61 224.55" style="fill:none;stroke:#000;stroke-linecap:round;stroke-linejoin:round;stroke-width:16px"/><polygon points="145.92 287.45 145.92 318.9 169.51 342.49 342.49 342.49 366.08 318.9 366.08 287.45 145.92 287.45" style="fill:none;stroke:#000;stroke-linecap:round;stroke-linejoin:round;stroke-width:16px"/><rect x="232.41" y="342.49" width="47.18" height="46.62" style="fill:none;stroke:#000;stroke-linecap:round;stroke-linejoin:round;stroke-width:16px"/><rect x="185.23" y="389.11" width="141.53" height="24.15" style="fill:none;stroke:#000;stroke-linecap:round;stroke-linejoin:round;stroke-width:16px"/><polygon points="169.51 413.26 130.19 499.75 381.81 499.75 342.49 413.26 169.51 413.26" style="fill:none;stroke:#000;stroke-linecap:round;stroke-linejoin:round;stroke-width:16px"/><g id="FRAME" style="opacity:0.01"><path d="M512,0h0V512H0V0H512m0,0H0V512H512V0Z"/></g></g></svg>