<svg xmlns="http://www.w3.org/2000/svg" width="512" height="512" viewBox="0 0 512 512">
  <g id="cyberthugCore">
    <polygon points="424 128 88 128 64 152 64 200 88 224 424 224 448 200 448 152 424 128" style="fill: none;stroke: #000;stroke-linecap: round;stroke-linejoin: round;stroke-width: 8px"/>
    <polygon points="104 128 104 88 128 64 384 64 408 88 408 128 104 128" style="fill: none;stroke: #000;stroke-linecap: round;stroke-linejoin: round;stroke-width: 8px"/>
    <polygon points="144 64 144 32 168 8 344 8 368 32 368 64 144 64" style="fill: none;stroke: #000;stroke-linecap: round;stroke-linejoin: round;stroke-width: 8px"/>
    <polygon points="104 224 104 264 128 288 384 288 408 264 408 224 104 224" style="fill: none;stroke: #000;stroke-linecap: round;stroke-linejoin: round;stroke-width: 8px"/>
    <polygon points="144 288 144 320 168 344 344 344 368 320 368 288 144 288" style="fill: none;stroke: #000;stroke-linecap: round;stroke-linejoin: round;stroke-width: 8px"/>
    <rect x="232" y="344" width="48" height="56" style="fill: none;stroke: #000;stroke-linecap: round;stroke-linejoin: round;stroke-width: 8px"/>
    <rect x="184" y="400" width="144" height="16" style="fill: none;stroke: #000;stroke-linecap: round;stroke-linejoin: round;stroke-width: 8px"/>
    <polygon points="168 416 128 504 384 504 344 416 168 416" style="fill: none;stroke: #000;stroke-linecap: round;stroke-linejoin: round;stroke-width: 8px"/>
    <g id="FRAME" style="opacity: 0.01">
      <path d="M512,0h0V512H0V0H512m0,0H0V512H512V0Z"/>
    </g>
  </g>
</svg>
