<svg xmlns="http://www.w3.org/2000/svg" width="512" height="512" viewBox="0 0 512 512">
  <defs>
    <style>
      .cls-1, .cls-2, .cls-4 {
        fill: none;
      }

      .cls-1, .cls-2, .cls-3, .cls-4 {
        stroke: #000;
        stroke-width: 8px;
      }

      .cls-1 {
        stroke-miterlimit: 10;
      }

      .cls-2, .cls-3, .cls-4 {
        stroke-linejoin: round;
      }

      .cls-3, .cls-4 {
        stroke-linecap: round;
      }

      .cls-5 {
        opacity: 0.01;
      }
    </style>
  </defs>
  <g id="cyberthug">
    <path class="cls-1" d="M284.367,105.267c4.447,65.587-25.124,39.355-40.513,107.833-13.587,60.458-34.152,82.258-97.071,48.539"/>
    <path class="cls-2" d="M167.053,219.006s33.72-28.409,51.491,1.928C174.958,240.251,167.053,219.006,167.053,219.006Z"/>
    <path id="left_eyebrow" data-name="left eyebrow" class="cls-3" d="M231.539,176s-55.382-10.676-70.606,12.284c35.754-13.058,63.321.4,63.321.4Z"/>
    <path id="head" class="cls-1" d="M364.271,241.86l.536,39.356c0,69.91-54.571,110.471-109.142,110.471h0c-54.571,0-109.142-40.561-109.142-110.471l1.236-93.131c0-55.088,34.831-84.238,107.906-84.238S363.572,133,363.572,188.085l.268,21.291"/>
    <path id="neck" class="cls-1" d="M322.077,368.942c-20.069,50.2,19.4,68.179,17.879,124.873,0,0-5.512,13.107-84.291,13.107s-84.291-13.107-84.291-13.107c-1.524-56.694,37.948-74.677,17.879-124.873"/>
    <path id="mouth" class="cls-4" d="M220.139,332a17.849,17.849,0,0,1,9.943-2.848h51.085A17.849,17.849,0,0,1,291.11,332"/>
    <path id="left_eyebrow-2" data-name="left eyebrow" class="cls-3" d="M277.415,171.663s57.773-9.726,70.965,13.384c-30.144-10.583-70.965-.962-70.965-.962Z"/>
    <path class="cls-2" d="M337.726,228.017s-20.655-37.014-56.817,0C310.182,249.966,337.726,228.017,337.726,228.017Z"/>
    <path class="cls-4" d="M244.286,289.553c.507.813,4.532,7.04,11.379,7.04s10.872-6.227,11.379-7.04"/>
    <polygon class="cls-4" points="351.683 198.405 274.239 198.405 263.369 208.882 263.369 240.749 274.239 251.763 351.683 251.763 355.265 245.689 355.265 205.547 351.683 198.405"/>
    <polygon class="cls-4" points="373.82 243.358 355.265 243.358 355.265 208.415 373.762 208.415 373.82 243.358"/>
    <path class="cls-4" d="M363.755,200.483"/>
    <polyline class="cls-4" points="148.232 177.339 133.058 182.519 132.319 205.624 147.433 212.665"/>
    <path class="cls-4" d="M132.319,194.507c-63.135-4.623-40.143,76.827,14.288,91.4"/>
    <path class="cls-4" d="M364.4,251.21c3.46,0,9.421-5.128,9.393-8.965l-.065-33.366c-.028-3.793-6.588-8.853-10.008-8.853"/>
    <path d="M346.727,138.894a131.88,131.88,0,0,0,4.037-23.519,68.528,68.528,0,0,0-1.954-23.081,48.306,48.306,0,0,0-10.936-19.742,76.682,76.682,0,0,0-18.42-14.308c-13.8-8-29.224-13.775-44.2-21.012a176.59,176.59,0,0,1-21.981-12.3A97.673,97.673,0,0,1,233.915,8.158l6.519-.7-8.7,15.81a4,4,0,0,1-7,.021l-8.823-15.81,6.2.99h0c-.5.506-1.163,1.226-1.731,1.88-.585.677-1.174,1.36-1.744,2.06q-1.715,2.1-3.267,4.341a72.846,72.846,0,0,0-5.506,9.323,55.041,55.041,0,0,0-5.77,20.415,50.33,50.33,0,0,0,3.03,20.923,84.693,84.693,0,0,0,10.392,19.405l.008.012a2.273,2.273,0,0,1-3.451,2.923,64.182,64.182,0,0,1-7.79-9.049A58.346,58.346,0,0,1,200.27,70.16a48.469,48.469,0,0,1-2.156-5.763,48.808,48.808,0,0,1-1.493-6.01,54.463,54.463,0,0,1-.849-12.4,57.81,57.81,0,0,1,1.982-12.245,65.392,65.392,0,0,1,4.42-11.482,70.611,70.611,0,0,1,6.364-10.4q1.8-2.454,3.8-4.762c.666-.769,1.344-1.53,2.061-2.266.735-.756,1.4-1.427,2.3-2.24v0a3.992,3.992,0,0,1,6.19.962l.016.029,8.823,15.81-7,.021,8.7-15.81a4,4,0,0,1,5.429-1.579,4.086,4.086,0,0,1,1.089.878,89.69,89.69,0,0,0,17.793,15.39,168.72,168.72,0,0,0,20.989,11.735c7.3,3.515,14.812,6.75,22.343,10.133a239.491,239.491,0,0,1,22.42,11.178A84.548,84.548,0,0,1,343.8,67.177a56.389,56.389,0,0,1,12.715,22.965,76.449,76.449,0,0,1,2.23,25.777,139.824,139.824,0,0,1-4.274,24.983,4,4,0,0,1-7.754-1.969h0Z"/>
    <path class="cls-4" d="M200.86,58.688s-14.873,1.187-21.975-11.658c0,0-57.274,44.527-18.177,92.868"/>
  </g>
  <g id="FRAME">
    <g id="FRAME-2" data-name="FRAME" class="cls-5">
      <path d="M512,.01h-.01V511.99H.01V.01H512M512,0H0V512H512V0Z"/>
    </g>
  </g>
</svg>
