<svg xmlns="http://www.w3.org/2000/svg" width="512" height="512" viewBox="0 0 512 512">
  <g id="artboard_9_games" data-name="artboard 9 games">
    <g style="opacity: 0.01">
      <path d="M512,0h0V512H0V0H512m0,0H0V512H512V0Z"/>
    </g>
    <path d="M421.547,439.517a90.52,90.52,0,0,1-79-46.4l-37.305-66.894a9.89,9.89,0,0,0-8.632-5.069H215.389a9.89,9.89,0,0,0-8.632,5.069L169.452,393.12A90.453,90.453,0,0,1,0,349.063V193.633A121.288,121.288,0,0,1,121.15,72.483h269.7A121.288,121.288,0,0,1,512,193.633v155.43A90.556,90.556,0,0,1,421.547,439.517ZM215.389,288.948h81.222a42.124,42.124,0,0,1,36.762,21.59l37.3,66.894a58.245,58.245,0,0,0,109.114-28.369V193.633a89.041,89.041,0,0,0-88.941-88.941H121.15a89.041,89.041,0,0,0-88.941,88.941v155.43a58.245,58.245,0,0,0,109.114,28.369l37.3-66.894A42.124,42.124,0,0,1,215.389,288.948Z"/>
    <path d="M194.335,206.818a17.137,17.137,0,0,1-17.142,17.143H151.478v25.714a17.143,17.143,0,1,1-34.285,0V223.961H91.478a17.143,17.143,0,1,1,0-34.286h25.715V163.961a17.143,17.143,0,1,1,34.285,0v25.714h25.715A17.144,17.144,0,0,1,194.335,206.818Z"/>
    <circle cx="377.665" cy="163.953" r="17.131"/>
    <circle cx="377.665" cy="249.69" r="17.131"/>
    <circle cx="420.533" cy="206.822" r="17.131"/>
    <circle cx="334.796" cy="206.822" r="17.131"/>
  </g>
</svg>
