<svg xmlns="http://www.w3.org/2000/svg" width="496" height="400" viewBox="0 0 496 400"><path d="M136.16,0C103.74,0,81.05,25.93,61.59,55.11A395.69,395.69,0,0,0,16.21,168.57C6.48,210.71,0,256.09,0,291.75c0,38.9,3.24,71.32,22.69,90.77,9.73,9.72,19.45,16.21,32.42,16.21s22.69-3.24,32.42-6.49c19.45-9.72,38.9-29.17,55.11-48.62s32.42-38.9,42.14-55.11c6.49-6.48,9.73-13,13-19.45h100.5c3.24,3.24,9.72,9.73,13,19.45,13,16.21,25.93,35.66,42.14,55.11s32.42,38.9,55.11,48.62c9.73,6.49,22.69,9.73,32.42,6.49,13,0,22.69-6.49,32.42-16.21C492.76,359.83,496,327.41,496,291.75c0-38.9-6.48-81-16.21-123.18A395.69,395.69,0,0,0,434.41,55.11C415,22.69,392.26,0,359.84,0s-55.11,9.73-71.32,19.45-22.69,16.21-38.9,16.21h0c-16.21,0-25.93-6.48-42.14-16.21S171.82,0,136.16,0Zm0,35.66c25.93,0,38.9,6.48,55.11,16.21s32.42,19.45,58.35,19.45h0c25.94,0,42.14-13,58.35-19.45,16.21-9.73,29.18-16.21,55.11-16.21,13,0,29.18,13,45.39,38.9s29.18,64.83,42.14,103.73,16.21,81,16.21,113.46c0,35.66-6.48,61.59-16.21,68.08-3.24,3.24-6.48,6.48-9.72,6.48s-6.48,0-13-3.24c-13-6.48-29.17-22.69-42.14-38.9-16.21-16.21-29.18-38.9-42.15-55.11-6.48-6.48-9.72-16.21-16.21-19.45l-6.48-6.48s-9.72-6.49-19.45-6.49H197.75c-9.72,0-13,3.25-16.21,6.49s-6.48,6.48-9.72,6.48c-6.49,6.48-9.73,13-16.21,19.45-13,16.21-25.94,35.66-42.15,55.11-16.21,16.21-32.41,32.42-42.14,38.9-6.48,3.24-9.73,3.24-13,3.24s-6.48,0-9.72-6.48c-6.49-6.49-16.21-35.66-16.21-68.08s6.48-74.56,16.21-113.46,25.93-77.8,42.14-103.73S126.43,35.66,136.16,35.66ZM350.16,94c-9.73,0-16.21,6.48-16.21,16.21s6.48,16.21,16.21,16.21,16.21-6.49,16.21-16.21S359.84,94,350.12,94Zm-201,13c-9.72,0-19.45,9.72-16.2,19.45v16.2h-19.5c-9.72,0-16.21,6.49-19.45,16.21,0,9.73,6.49,19.45,16.21,19.45h16.21V194.5c0,9.73,6.49,19.45,16.21,19.45s19.45-6.48,19.45-16.21h0V178.29h22.69c9.73,0,19.46-6.48,19.46-16.21s-6.49-19.45-16.21-19.45h-22.7v-16.2c0-9.73-6.48-19.45-16.21-19.45Zm152.37,35.65c-9.73,0-16.21,6.49-16.21,16.21s6.48,16.21,16.21,16.21,16.21-6.48,16.21-16.21-6.52-16.24-16.25-16.24Zm97.26,0c-9.73,0-16.21,6.49-16.21,16.21s6.48,16.21,16.21,16.21S415,168.6,415,158.87s-6.52-16.24-16.24-16.24Zm-48.63,48.63c-9.73,0-16.21,6.48-16.21,16.21s6.48,16.21,16.21,16.21,16.21-6.49,16.21-16.21-6.53-16.24-16.25-16.24Z" style="fill-rule:evenodd"/></svg>