<svg xmlns="http://www.w3.org/2000/svg" viewBox="0 0 496 496">
	<path d="M256,8C119.05,8,8,121.84,8,262.29,8,374.63,79.05,469.93,177.61,503.56c12.4,2.33,16.93-5.52,16.93-12.25,0-6-.22-22-.34-43.25-69,15.36-83.54-34.09-83.54-34.09-11.28-29.37-27.53-37.19-27.53-37.19-22.52-15.78,1.7-15.46,1.7-15.46,24.89,1.8,38,26.2,38,26.2,22.12,38.86,58,27.64,72.17,21.13,2.25-16.43,8.66-27.63,15.75-34-55.07-6.42-113-28.23-113-125.67,0-27.76,9.66-50.46,25.53-68.24-2.55-6.43-11.06-32.28,2.43-67.29,0,0,20.82-6.84,68.2,26.07a229.43,229.43,0,0,1,124.17,0c47.35-32.91,68.13-26.07,68.13-26.07,13.53,35,5,60.86,2.47,67.29,15.89,17.78,25.49,40.48,25.49,68.24,0,97.68-58,119.18-113.23,125.47,8.9,7.85,16.84,23.37,16.84,47.09,0,34-.31,61.42-.31,69.76,0,6.8,4.47,14.71,17.06,12.22C433,469.84,504,374.6,504,262.29,504,121.84,393,8,256,8Z" transform="translate(-8 -8)"/>
</svg>
