<svg xmlns="http://www.w3.org/2000/svg" width="512" height="512" viewBox="0 0 512 512">
  <g id="artboard_3_iso" data-name="artboard 3 iso">
    <g style="opacity: 0.01">
      <path d="M512,0h0V512H0V0H512m0,0H0V512H512V0Z"/>
    </g>
    <path d="M122.33,183.333a15.159,15.159,0,0,0-15.19,15.129V313.489a15.19,15.19,0,0,0,30.38,0V198.472A15.181,15.181,0,0,0,122.33,183.333Z" style="fill-rule: evenodd"/>
    <path d="M203.632,183.333c-24.7,0-44.819,19.688-44.819,43.893s20.12,43.893,44.819,43.893h16.713c7.956,0,14.408,6.113,14.408,13.616s-6.452,13.626-14.408,13.626H198.733c-7.986,0-13.914-4.024-15.282-5.558a15.18,15.18,0,0,0-25.163,16.971c6.267,9.375,22.168,18.854,40.445,18.854h21.612c24.7,0,44.809-19.688,44.809-43.893s-20.1-43.893-44.819-43.893H203.529c-7.965,0-14.459-6.113-14.459-13.616s6.494-13.626,14.459-13.626h15.952a14.408,14.408,0,0,1,11.413,4.992,15.17,15.17,0,0,0,25.729-16.034,44.255,44.255,0,0,0-37.163-19.225Z" style="fill-rule: evenodd"/>
    <path d="M341.054,183.333c-35.156,0-63.807,32.593-63.807,72.648s28.63,72.647,63.807,72.647,63.806-32.583,63.806-72.647S376.219,183.354,341.054,183.333Zm0,115.028c-18.4,0-33.478-19.009-33.478-42.38s14.984-42.381,33.4-42.381h.083c18.442,0,33.426,19.009,33.426,42.381s-14.953,42.38-33.395,42.38Z"/>
    <path d="M411.619,82.7A68.458,68.458,0,0,1,480,151.082V360.918A68.458,68.458,0,0,1,411.619,429.3H100.381A68.458,68.458,0,0,1,32,360.918V151.082A68.458,68.458,0,0,1,100.381,82.7H411.619m0-32H100.381A100.381,100.381,0,0,0,0,151.082V360.918A100.381,100.381,0,0,0,100.381,461.3H411.619A100.381,100.381,0,0,0,512,360.918V151.082A100.381,100.381,0,0,0,411.619,50.7Z"/>
  </g>
</svg>
