<svg xmlns="http://www.w3.org/2000/svg" viewBox="0 0 496 400">
  <rect x="16" y="16" width="464" height="368" rx="79.73" style="fill: none;stroke: #000;stroke-linecap: round;stroke-linejoin: round;stroke-width: 32px"/>
  <path d="M135,185.41a14.73,14.73,0,0,0-14.76,14.71V311.88a14.76,14.76,0,0,0,29.52,0V200.12A14.75,14.75,0,0,0,135,185.41Z" transform="translate(-8 -56)" style="fill-rule: evenodd"/>
  <path d="M214,185.41c-24,0-43.55,19.13-43.55,42.65S190,270.71,214,270.71h16.24c7.73,0,14,5.94,14,13.23s-6.27,13.24-14,13.24h-21c-7.76,0-13.52-3.91-14.85-5.4a14.75,14.75,0,0,0-24.45,16.49c6.09,9.11,21.54,18.32,39.3,18.32h21c24,0,43.54-19.13,43.54-42.65s-19.53-42.65-43.55-42.65H213.9c-7.74,0-14.05-5.94-14.05-13.23s6.31-13.24,14.05-13.24h15.5a14,14,0,0,1,11.09,4.85,14.74,14.74,0,0,0,25-15.58,43,43,0,0,0-36.11-18.68Z" transform="translate(-8 -56)" style="fill-rule: evenodd"/>
  <path d="M347.53,185.41c-34.16,0-62,31.67-62,70.59s27.82,70.59,62,70.59,62-31.66,62-70.59S381.7,185.43,347.53,185.41Zm0,111.77C329.65,297.18,315,278.71,315,256s14.56-41.18,32.46-41.18h.08c17.92,0,32.48,18.47,32.48,41.18S365.49,297.18,347.57,297.18Z" transform="translate(-8 -56)"/>
</svg>
