<svg xmlns="http://www.w3.org/2000/svg" width="512" height="512" viewBox="0 0 512 512"><g id="_05b-linux_alt" data-name="05b-linux_alt"><path d="M296.45,476.64A224.08,224.08,0,0,1,256,480a224.08,224.08,0,0,1-40.45-3.36,50.59,50.59,0,0,1-13.2,28,51.54,51.54,0,0,1-4.8,4.46A138,138,0,0,0,225.43,512h61.14a138,138,0,0,0,27.88-2.89,51.54,51.54,0,0,1-4.8-4.46A50.59,50.59,0,0,1,296.45,476.64Z"/><path d="M464,304c-24-80-80-168-80-168V105.88C384,47.4,328,0,256,0S128,47.4,128,105.88V136S72,224,48,304c-14.54,48.46,32,16,32,16-3.41,25.56-2.4,48.93,2.06,69.9l0,0a77.38,77.38,0,0,1,49.47-21.73C133,327.7,147.15,283.33,160,248c16.62-45.71-20.9-107,82.81-40.63a24.45,24.45,0,0,0,26.38,0C372.9,141,335.38,202.29,352,248c12.85,35.33,27,79.7,28.43,120.14a77.38,77.38,0,0,1,49.47,21.73l0,0c4.46-21,5.47-44.34,2.06-69.9C432,320,478.54,352.46,464,304ZM195,130a21,21,0,1,1,21-21A21,21,0,0,1,195,130Zm122,0a21,21,0,1,1,21-21A21,21,0,0,1,317,130Z"/><g style="opacity:0.01"><path d="M512,0h0V512H0V0H512m0,0H0V512H512V0Z"/></g><path d="M167.05,512H105c-23.62,0-42.34-20.43-40.87-44.59l1.44-23.54C67.84,405.72,98.71,376,136,376h0c37.29,0,68.16,29.72,70.48,67.87l1.44,23.54C209.39,491.57,190.67,512,167.05,512Z"/><path d="M407.05,512H345c-23.62,0-42.34-20.43-40.87-44.59l1.44-23.54C307.84,405.72,338.71,376,376,376h0c37.29,0,68.16,29.72,70.48,67.87l1.44,23.54C449.39,491.57,430.67,512,407.05,512Z"/></g></svg>