<svg xmlns="http://www.w3.org/2000/svg" width="512" height="512" viewBox="0 0 512 512">
	<g id="_05c-linux_alt_snap" data-name="05c-linux_alt_snap">
		<g style="opacity:0.01">
			<path d="M512,0h0V512H0V0H512m0,0H0V512H512V0Z"/>
		</g>
		<path d="M167.05,512H105c-23.62,0-42.34-20.43-40.87-44.59l1.44-23.54C67.84,405.72,98.71,376,136,376h0c37.29,0,68.16,29.72,70.48,67.87l1.44,23.54C209.39,491.57,190.67,512,167.05,512Z"/>
		<path d="M306.26,500.62a147.27,147.27,0,0,1-35.41-21c-4.76.26-9.7.41-14.85.41a224.08,224.08,0,0,1-40.45-3.36,50.59,50.59,0,0,1-13.2,28,51.54,51.54,0,0,1-4.8,4.46A138,138,0,0,0,225.43,512h61.14a138,138,0,0,0,27.88-2.89,51.54,51.54,0,0,1-4.8-4.46A50.17,50.17,0,0,1,306.26,500.62Z"/>
		<path d="M269.19,207.37c80-51.23,76-26.45,77.57,8.53a151.92,151.92,0,0,1,16.72-.94A147.57,147.57,0,0,1,437,234.39,925.93,925.93,0,0,0,384,136V105.88C384,47.4,328,0,256,0S128,47.4,128,105.88V136S72,224,48,304c-14.54,48.46,32,16,32,16-3.41,25.56-2.4,48.93,2.06,69.9l0,0a77.38,77.38,0,0,1,49.47-21.73C133,327.7,147.15,283.33,160,248c16.62-45.71-20.9-107,82.81-40.63A24.45,24.45,0,0,0,269.19,207.37ZM317,88a21,21,0,1,1-21,21A21,21,0,0,1,317,88ZM195,130a21,21,0,1,1,21-21A21,21,0,0,1,195,130Z"/>
		<path d="M363.48,237.5a126,126,0,1,0,126,126A126,126,0,0,0,363.48,237.5ZM313.49,458l48.57-91.09,21.33,21.19Zm72.28-72.28-100-99.38,100,36.14Zm3.35-3.36V325.11l39.62,17.61Zm2.31-59.88H449l16.45,32.9Z" style="fill-rule:evenodd"/>
	</g>
</svg>
