<svg xmlns="http://www.w3.org/2000/svg" width="512" height="512" viewBox="0 0 512 512">
  <g id="_05-linux" data-name="05-linux">
    <path d="M432,320c16,120-65.11,192-145.43,192H225.43C145.11,512,64,440,80,320c0,0-46.54,32.46-32-16,24-80,80-168,80-168V105.88C128,47.4,184,0,256,0h0c72,0,128,47.4,128,105.88V136s56,88,80,168C478.54,352.46,432,320,432,320Z"/>
    <circle cx="195" cy="109" r="21" style="fill: #fff"/>
    <circle cx="317" cy="109" r="21" style="fill: #fff"/>
    <path d="M256,480c-168,0-128-144-96-232,16.622-45.714-20.9-107.047,82.805-40.632a24.458,24.458,0,0,0,26.39,0C372.9,140.953,335.378,202.286,352,248,384,336,424,480,256,480Z" style="fill: #fff"/>
    <path d="M167.046,512H104.954c-23.622,0-42.346-20.428-40.873-44.592l1.436-23.54C67.843,405.719,98.708,376,136,376h0c37.292,0,68.157,29.719,70.483,67.868l1.436,23.54C209.392,491.572,190.668,512,167.046,512Z" style="fill: #ffa12e"/>
    <path d="M407.046,512H344.954c-23.622,0-42.346-20.428-40.873-44.592l1.436-23.54C307.843,405.719,338.708,376,376,376h0c37.292,0,68.157,29.719,70.483,67.868l1.436,23.54C449.392,491.572,430.668,512,407.046,512Z" style="fill: #ffa12e"/>
    <g style="opacity: 0.01">
      <path d="M512,0h0V512H0V0H512m0,0H0V512H512V0Z"/>
    </g>
  </g>
</svg>
