<svg xmlns="http://www.w3.org/2000/svg" width="512" height="512" viewBox="0 0 512 512">
  <g id="artboard_4_photos" data-name="artboard 4 photos">
    <g style="opacity: 0.01">
      <path d="M512-.021h0v512H0v-512H512m0,0H0v512H512v-512Z"/>
    </g>
    <path d="M411.619,63.981A68.457,68.457,0,0,1,480,132.361V379.639a68.457,68.457,0,0,1-68.381,68.38H100.381A68.457,68.457,0,0,1,32,379.639V132.361a68.457,68.457,0,0,1,68.381-68.38H411.619m0-32H100.381A100.381,100.381,0,0,0,0,132.361V379.639a100.381,100.381,0,0,0,100.381,100.38H411.619A100.381,100.381,0,0,0,512,379.639V132.361A100.381,100.381,0,0,0,411.619,31.981Z"/>
    <path d="M192.005,175.982a48,48,0,1,1-48-48h0A48,48,0,0,1,192.005,175.982Z"/>
    <path d="M22.064,394.755l89.557-82.008A26.169,26.169,0,0,1,144,310.4l77.953,52.97L336.53,249.664a26.168,26.168,0,0,1,30.649-4.569L487.124,318.45v76.305A66.543,66.543,0,0,1,420.581,461.3H88.608a66.544,66.544,0,0,1-66.544-66.544Z"/>
  </g>
</svg>
