<svg xmlns="http://www.w3.org/2000/svg" width="512" height="512" viewBox="0 0 512 512">
	<g id="artboard_4_photos" data-name="artboard 4 photos">
		<g style="opacity:0.01">
			<path d="M512,0h0V512H0V0H512m0,0H0V512H512V0Z"/>
		</g>
		<path d="M411.62,64A68.46,68.46,0,0,1,480,132.36V379.64A68.46,68.46,0,0,1,411.62,448H100.38A68.46,68.46,0,0,1,32,379.64V132.36A68.46,68.46,0,0,1,100.38,64H411.62m0-32H100.38A100.38,100.38,0,0,0,0,132.36V379.64A100.38,100.38,0,0,0,100.38,480H411.62A100.38,100.38,0,0,0,512,379.64V132.36A100.38,100.38,0,0,0,411.62,32Z"/>
		<polyline points="28 400 132 312 220 376 356 248 492 328" style="fill:none;stroke:#000;stroke-linecap:round;stroke-linejoin:round;stroke-width:32px"/>
		<circle cx="148" cy="168" r="40" style="fill:none;stroke:#000;stroke-miterlimit:10;stroke-width:32px"/>
	</g>
</svg>
