<svg xmlns="http://www.w3.org/2000/svg" width="512" height="512" viewBox="0 0 512 512"><g id="_04-windows11" data-name="04-windows11"><path d="M237.84,248H20.06A20.06,20.06,0,0,1,0,227.94V20.06A20.06,20.06,0,0,1,20.06,0H227.94A20.06,20.06,0,0,1,248,20.06V237.84A10.16,10.16,0,0,1,237.84,248ZM491.94,0H284.06A20.06,20.06,0,0,0,264,20.06V237.84A10.16,10.16,0,0,0,274.16,248H491.94A20.06,20.06,0,0,0,512,227.94V20.06A20.06,20.06,0,0,0,491.94,0ZM237.84,264H20.06A20.06,20.06,0,0,0,0,284.06V491.94A20.06,20.06,0,0,0,20.06,512H227.94A20.06,20.06,0,0,0,248,491.94V274.16A10.16,10.16,0,0,0,237.84,264Zm254.1,0H274.16A10.16,10.16,0,0,0,264,274.16V491.94A20.06,20.06,0,0,0,284.06,512H491.94A20.06,20.06,0,0,0,512,491.94V284.06A20.06,20.06,0,0,0,491.94,264Z" style="fill:#0078d4"/><g style="opacity:0.01"><path d="M512,0h0V512H0V0H512m0,0H0V512H512V0Z"/></g></g></svg>