<svg xmlns="http://www.w3.org/2000/svg" width="512" height="512" viewBox="0 0 512 512">
  <g id="artboard_7_workbook" data-name="artboard 7 workbook">
    <g style="opacity: 0.01">
      <path d="M512,.121h0v512H0V.121H512m0,0H0v512H512V.12Z"/>
    </g>
    <path d="M433.941,140.763V440.81a54.877,54.877,0,0,1-54.877,54.877H132.936A54.877,54.877,0,0,1,78.059,440.81V71.43a54.877,54.877,0,0,1,54.877-54.877h176.8" style="fill: none;stroke: #000;stroke-linecap: round;stroke-linejoin: round;stroke-width: 32px"/>
    <polygon points="433.941 140.763 309.731 140.763 309.731 16.553 433.941 140.763" style="fill: none;stroke: #000;stroke-linecap: round;stroke-linejoin: round;stroke-width: 32px"/>
    <line x1="160.712" y1="236.147" x2="351.288" y2="236.147" style="fill: none;stroke: #000;stroke-linecap: round;stroke-linejoin: round;stroke-width: 32px"/>
    <line x1="160.712" y1="294.595" x2="351.288" y2="294.595" style="fill: none;stroke: #000;stroke-linecap: round;stroke-linejoin: round;stroke-width: 32px"/>
    <line x1="160.712" y1="353.042" x2="351.288" y2="353.042" style="fill: none;stroke: #000;stroke-linecap: round;stroke-linejoin: round;stroke-width: 32px"/>
    <line x1="160.712" y1="411.49" x2="291.982" y2="411.49" style="fill: none;stroke: #000;stroke-linecap: round;stroke-linejoin: round;stroke-width: 32px"/>
  </g>
</svg>
